<?xml version="1.0" encoding="utf-8"?>
<!-- Generator: Adobe Illustrator 27.3.1, SVG Export Plug-In . SVG Version: 6.00 Build 0)  -->
<svg version="1.1" id="Layer_1" xmlns="http://www.w3.org/2000/svg" xmlns:xlink="http://www.w3.org/1999/xlink" x="0px" y="0px"
	 viewBox="0 0 129.6 149.7" style="enable-background:new 0 0 129.6 149.7;" xml:space="preserve">
<style type="text/css">
	.st0{fill:#FFFFFF;stroke:#000000;stroke-miterlimit:10;}
</style>
<g id="Layer_2_00000129894259402063989990000011931533053239528365_">
	<g id="Layer_2-2">
		<path class="st0" d="M129.6,37.4L129.6,37.4L64.8,0L0,37.4v74.8L60.2,147l0,0l4.6,2.7l4.6-2.7l0,0l60.2-34.8l0,0L129.6,37.4z
			 M64.8,10.7l46.3,26.7L64.8,64.2L18.5,37.4L64.8,10.7z M9.3,107V42.8l50.9,29.4v64.1L9.3,107z M120.4,107l-50.9,29.3V72.2
			l50.9-29.4L120.4,107L120.4,107z"/>
		<polygon class="st0" points="53.8,79.2 39.5,89.4 52.8,121.4 40.9,114.5 32.7,94.4 28.8,97.1 28.7,107.4 18.5,101.6 18.5,58.8 
			28.7,64.7 28.8,83.7 43.7,73.3 		"/>
	</g>
</g>
</svg>
